<?xml version="1.0" encoding="UTF-8" standalone="no"?>
<!DOCTYPE svg PUBLIC "-//W3C//DTD SVG 1.1//EN"
 "http://www.w3.org/Graphics/SVG/1.1/DTD/svg11.dtd">
<!-- Generated by graphviz version 2.40.1 (20161225.0304)
 -->
<!-- Title: dependencies Pages: 1 -->
<svg width="1937pt" height="284pt"
 viewBox="0.00 0.00 1937.00 284.00" xmlns="http://www.w3.org/2000/svg" xmlns:xlink="http://www.w3.org/1999/xlink">
<g id="graph0" class="graph" transform="scale(1 1) rotate(0) translate(4 280)">
<title>dependencies</title>
<polygon fill="#ffffff" stroke="transparent" points="-4,4 -4,-280 1933,-280 1933,4 -4,4"/>
<text text-anchor="start" x="943.5091" y="-42.4" font-family="sans-serif" font-weight="bold" font-size="14.00" fill="#000000">Legend</text>
<polygon fill="#ffffb3" stroke="transparent" points="730.5,-10 730.5,-30 750.5,-30 750.5,-10 730.5,-10"/>
<text text-anchor="start" x="754.129" y="-15.4" font-family="sans-serif" font-size="14.00" fill="#000000"> &#160;Declarations</text>
<polygon fill="#8dd3c7" stroke="transparent" points="843.5,-10 843.5,-30 863.5,-30 863.5,-10 843.5,-10"/>
<text text-anchor="start" x="867.2251" y="-15.4" font-family="sans-serif" font-size="14.00" fill="#000000"> &#160;Module</text>
<polygon fill="#80b1d3" stroke="transparent" points="929.5,-10 929.5,-30 949.5,-30 949.5,-10 929.5,-10"/>
<text text-anchor="start" x="953.2812" y="-15.4" font-family="sans-serif" font-size="14.00" fill="#000000"> &#160;Bootstrap</text>
<polygon fill="#fdb462" stroke="transparent" points="1026.5,-10 1026.5,-30 1046.5,-30 1046.5,-10 1026.5,-10"/>
<text text-anchor="start" x="1050.1732" y="-15.4" font-family="sans-serif" font-size="14.00" fill="#000000"> &#160;Providers</text>
<polygon fill="#fb8072" stroke="transparent" points="1122.5,-10 1122.5,-30 1142.5,-30 1142.5,-10 1122.5,-10"/>
<text text-anchor="start" x="1146.2258" y="-15.4" font-family="sans-serif" font-size="14.00" fill="#000000"> &#160;Exports</text>
<g id="clust1" class="cluster">
<title>cluster_AppModule</title>
<polygon fill="none" stroke="#000000" stroke-dasharray="1,5" points="8,-70 8,-268 1921,-268 1921,-70 8,-70"/>
</g>
<g id="clust2" class="cluster">
<title>cluster_AppModule_declarations</title>
<polygon fill="none" stroke="#000000" points="462,-78 462,-130 1913,-130 1913,-78 462,-78"/>
</g>
<g id="clust12" class="cluster">
<title>cluster_AppModule_imports</title>
<polygon fill="none" stroke="#000000" points="310,-78 310,-130 454,-130 454,-78 310,-78"/>
</g>
<g id="clust14" class="cluster">
<title>cluster_AppModule_bootstrap</title>
<polygon fill="none" stroke="#000000" points="827,-208 827,-260 951,-260 951,-208 827,-208"/>
</g>
<g id="clust15" class="cluster">
<title>cluster_AppModule_providers</title>
<polygon fill="none" stroke="#000000" points="16,-78 16,-130 302,-130 302,-78 16,-78"/>
</g>
<!-- AnConnexionComponent -->
<g id="node1" class="node">
<title>AnConnexionComponent</title>
<polygon fill="#ffffb3" stroke="#000000" points="1904.8808,-122 1745.1192,-122 1745.1192,-86 1904.8808,-86 1904.8808,-122"/>
<text text-anchor="middle" x="1825" y="-99.8" font-family="Times,serif" font-size="14.00" fill="#000000">AnConnexionComponent</text>
</g>
<!-- AppModule -->
<g id="node10" class="node">
<title>AppModule</title>
<polygon fill="#8dd3c7" stroke="#000000" points="930.6571,-187 927.6571,-191 906.6571,-191 903.6571,-187 847.3429,-187 847.3429,-151 930.6571,-151 930.6571,-187"/>
<text text-anchor="middle" x="889" y="-164.8" font-family="Times,serif" font-size="14.00" fill="#000000">AppModule</text>
</g>
<!-- AnConnexionComponent&#45;&gt;AppModule -->
<g id="edge1" class="edge">
<title>AnConnexionComponent&#45;&gt;AppModule</title>
<path fill="none" stroke="#000000" d="M1825,-122.2479C1825,-145.0179 1825,-181 1825,-181 1825,-181 940.7309,-181 940.7309,-181"/>
<polygon fill="#000000" stroke="#000000" points="940.7309,-177.5001 930.7309,-181 940.7309,-184.5001 940.7309,-177.5001"/>
</g>
<!-- AnewsAuteurComponent -->
<g id="node2" class="node">
<title>AnewsAuteurComponent</title>
<polygon fill="#ffffb3" stroke="#000000" points="1727.5772,-122 1568.4228,-122 1568.4228,-86 1727.5772,-86 1727.5772,-122"/>
<text text-anchor="middle" x="1648" y="-99.8" font-family="Times,serif" font-size="14.00" fill="#000000">AnewsAuteurComponent</text>
</g>
<!-- AnewsAuteurComponent&#45;&gt;AppModule -->
<g id="edge2" class="edge">
<title>AnewsAuteurComponent&#45;&gt;AppModule</title>
<path fill="none" stroke="#000000" d="M1648,-122.2843C1648,-143.3211 1648,-175 1648,-175 1648,-175 940.8883,-175 940.8883,-175"/>
<polygon fill="#000000" stroke="#000000" points="940.8883,-171.5001 930.8883,-175 940.8882,-178.5001 940.8883,-171.5001"/>
</g>
<!-- AnewsComponent -->
<g id="node3" class="node">
<title>AnewsComponent</title>
<polygon fill="#ffffb3" stroke="#000000" points="1550.205,-122 1429.795,-122 1429.795,-86 1550.205,-86 1550.205,-122"/>
<text text-anchor="middle" x="1490" y="-99.8" font-family="Times,serif" font-size="14.00" fill="#000000">AnewsComponent</text>
</g>
<!-- AnewsComponent&#45;&gt;AppModule -->
<g id="edge3" class="edge">
<title>AnewsComponent&#45;&gt;AppModule</title>
<path fill="none" stroke="#000000" d="M1490,-122.1061C1490,-141.3391 1490,-169 1490,-169 1490,-169 940.784,-169 940.784,-169"/>
<polygon fill="#000000" stroke="#000000" points="940.784,-165.5001 930.784,-169 940.784,-172.5001 940.784,-165.5001"/>
</g>
<!-- AnewsDetailComponent -->
<g id="node4" class="node">
<title>AnewsDetailComponent</title>
<polygon fill="#ffffb3" stroke="#000000" points="1412.413,-122 1257.587,-122 1257.587,-86 1412.413,-86 1412.413,-122"/>
<text text-anchor="middle" x="1335" y="-99.8" font-family="Times,serif" font-size="14.00" fill="#000000">AnewsDetailComponent</text>
</g>
<!-- AnewsDetailComponent&#45;&gt;AppModule -->
<g id="edge4" class="edge">
<title>AnewsDetailComponent&#45;&gt;AppModule</title>
<path fill="none" stroke="#000000" d="M1335,-122.0225C1335,-139.3734 1335,-163 1335,-163 1335,-163 940.9586,-163 940.9586,-163"/>
<polygon fill="#000000" stroke="#000000" points="940.9586,-159.5001 930.9586,-163 940.9586,-166.5001 940.9586,-159.5001"/>
</g>
<!-- AnewsRelativeComponent -->
<g id="node5" class="node">
<title>AnewsRelativeComponent</title>
<polygon fill="#ffffb3" stroke="#000000" points="1239.3571,-122 1072.6429,-122 1072.6429,-86 1239.3571,-86 1239.3571,-122"/>
<text text-anchor="middle" x="1156" y="-99.8" font-family="Times,serif" font-size="14.00" fill="#000000">AnewsRelativeComponent</text>
</g>
<!-- AnewsRelativeComponent&#45;&gt;AppModule -->
<g id="edge5" class="edge">
<title>AnewsRelativeComponent&#45;&gt;AppModule</title>
<path fill="none" stroke="#000000" d="M1156,-122.2396C1156,-137.5706 1156,-157 1156,-157 1156,-157 940.7188,-157 940.7188,-157"/>
<polygon fill="#000000" stroke="#000000" points="940.7188,-153.5001 930.7188,-157 940.7187,-160.5001 940.7188,-153.5001"/>
</g>
<!-- AnewsreserveesComponent -->
<g id="node6" class="node">
<title>AnewsreserveesComponent</title>
<polygon fill="#ffffb3" stroke="#000000" points="1054.2738,-122 881.7262,-122 881.7262,-86 1054.2738,-86 1054.2738,-122"/>
<text text-anchor="middle" x="968" y="-99.8" font-family="Times,serif" font-size="14.00" fill="#000000">AnewsreserveesComponent</text>
</g>
<!-- AnewsreserveesComponent&#45;&gt;AppModule -->
<g id="edge6" class="edge">
<title>AnewsreserveesComponent&#45;&gt;AppModule</title>
<path fill="none" stroke="#000000" d="M906.3457,-122.1061C906.3457,-122.1061 906.3457,-140.991 906.3457,-140.991"/>
<polygon fill="#000000" stroke="#000000" points="902.8458,-140.9909 906.3457,-150.991 909.8458,-140.991 902.8458,-140.9909"/>
</g>
<!-- AppComponent -->
<g id="node7" class="node">
<title>AppComponent</title>
<polygon fill="#ffffb3" stroke="#000000" points="863.9399,-122 758.0601,-122 758.0601,-86 863.9399,-86 863.9399,-122"/>
<text text-anchor="middle" x="811" y="-99.8" font-family="Times,serif" font-size="14.00" fill="#000000">AppComponent</text>
</g>
<!-- AppComponent&#45;&gt;AppModule -->
<g id="edge7" class="edge">
<title>AppComponent&#45;&gt;AppModule</title>
<path fill="none" stroke="#000000" d="M855.4457,-122.1061C855.4457,-122.1061 855.4457,-140.991 855.4457,-140.991"/>
<polygon fill="#000000" stroke="#000000" points="851.9457,-140.9909 855.4457,-150.991 858.9457,-140.991 851.9457,-140.9909"/>
</g>
<!-- Erreur404Component -->
<g id="node8" class="node">
<title>Erreur404Component</title>
<polygon fill="#ffffb3" stroke="#000000" points="740.0814,-122 601.9186,-122 601.9186,-86 740.0814,-86 740.0814,-122"/>
<text text-anchor="middle" x="671" y="-99.8" font-family="Times,serif" font-size="14.00" fill="#000000">Erreur404Component</text>
</g>
<!-- Erreur404Component&#45;&gt;AppModule -->
<g id="edge8" class="edge">
<title>Erreur404Component&#45;&gt;AppModule</title>
<path fill="none" stroke="#000000" d="M671,-122.2396C671,-137.5706 671,-157 671,-157 671,-157 837.2253,-157 837.2253,-157"/>
<polygon fill="#000000" stroke="#000000" points="837.2254,-160.5001 847.2253,-157 837.2253,-153.5001 837.2254,-160.5001"/>
</g>
<!-- MenuComponent -->
<g id="node9" class="node">
<title>MenuComponent</title>
<polygon fill="#ffffb3" stroke="#000000" points="583.9916,-122 470.0084,-122 470.0084,-86 583.9916,-86 583.9916,-122"/>
<text text-anchor="middle" x="527" y="-99.8" font-family="Times,serif" font-size="14.00" fill="#000000">MenuComponent</text>
</g>
<!-- MenuComponent&#45;&gt;AppModule -->
<g id="edge9" class="edge">
<title>MenuComponent&#45;&gt;AppModule</title>
<path fill="none" stroke="#000000" d="M527,-122.0225C527,-139.3734 527,-163 527,-163 527,-163 837.1204,-163 837.1204,-163"/>
<polygon fill="#000000" stroke="#000000" points="837.1204,-166.5001 847.1204,-163 837.1203,-159.5001 837.1204,-166.5001"/>
</g>
<!-- AppComponent  -->
<g id="node12" class="node">
<title>AppComponent </title>
<polygon fill="#80b1d3" stroke="#000000" points="943.439,-252 834.561,-252 834.561,-216 943.439,-216 943.439,-252"/>
<text text-anchor="middle" x="889" y="-229.8" font-family="Times,serif" font-size="14.00" fill="#000000">AppComponent </text>
</g>
<!-- AppModule&#45;&gt;AppComponent  -->
<g id="edge11" class="edge">
<title>AppModule&#45;&gt;AppComponent </title>
<path fill="none" stroke="#000000" stroke-dasharray="1,5" d="M889,-187.1061C889,-187.1061 889,-205.991 889,-205.991"/>
<polygon fill="#000000" stroke="#000000" points="885.5001,-205.9909 889,-215.991 892.5001,-205.991 885.5001,-205.9909"/>
</g>
<!-- AppRoutingModule -->
<g id="node11" class="node">
<title>AppRoutingModule</title>
<polygon fill="#8dd3c7" stroke="#000000" points="446.2744,-122 443.2744,-126 422.2744,-126 419.2744,-122 317.7256,-122 317.7256,-86 446.2744,-86 446.2744,-122"/>
<text text-anchor="middle" x="382" y="-99.8" font-family="Times,serif" font-size="14.00" fill="#000000">AppRoutingModule</text>
</g>
<!-- AppRoutingModule&#45;&gt;AppModule -->
<g id="edge10" class="edge">
<title>AppRoutingModule&#45;&gt;AppModule</title>
<path fill="none" stroke="#000000" d="M382,-122.1061C382,-141.3391 382,-169 382,-169 382,-169 837.0787,-169 837.0787,-169"/>
<polygon fill="#000000" stroke="#000000" points="837.0788,-172.5001 847.0787,-169 837.0787,-165.5001 837.0788,-172.5001"/>
</g>
<!-- AnewsService -->
<g id="node13" class="node">
<title>AnewsService</title>
<ellipse fill="#fdb462" stroke="#000000" cx="227" cy="-104" rx="66.6113" ry="18"/>
<text text-anchor="middle" x="227" y="-99.8" font-family="Times,serif" font-size="14.00" fill="#000000">AnewsService</text>
</g>
<!-- AnewsService&#45;&gt;AppModule -->
<g id="edge12" class="edge">
<title>AnewsService&#45;&gt;AppModule</title>
<path fill="none" stroke="#000000" d="M227,-122.2843C227,-143.3211 227,-175 227,-175 227,-175 837.3382,-175 837.3382,-175"/>
<polygon fill="#000000" stroke="#000000" points="837.3382,-178.5001 847.3382,-175 837.3381,-171.5001 837.3382,-178.5001"/>
</g>
<!-- AuthService -->
<g id="node14" class="node">
<title>AuthService</title>
<ellipse fill="#fdb462" stroke="#000000" cx="83" cy="-104" rx="59.1083" ry="18"/>
<text text-anchor="middle" x="83" y="-99.8" font-family="Times,serif" font-size="14.00" fill="#000000">AuthService</text>
</g>
<!-- AuthService&#45;&gt;AppModule -->
<g id="edge13" class="edge">
<title>AuthService&#45;&gt;AppModule</title>
<path fill="none" stroke="#000000" d="M83,-122.2479C83,-145.0179 83,-181 83,-181 83,-181 837.0824,-181 837.0824,-181"/>
<polygon fill="#000000" stroke="#000000" points="837.0824,-184.5001 847.0824,-181 837.0823,-177.5001 837.0824,-184.5001"/>
</g>
</g>
</svg>
