<?xml version="1.0" encoding="UTF-8" standalone="no"?>
<!DOCTYPE svg PUBLIC "-//W3C//DTD SVG 1.1//EN"
 "http://www.w3.org/Graphics/SVG/1.1/DTD/svg11.dtd">
<!-- Generated by graphviz version 2.40.1 (20161225.0304)
 -->
<!-- Title: dependencies Pages: 1 -->
<svg width="2631pt" height="284pt"
 viewBox="0.00 0.00 2631.00 284.00" xmlns="http://www.w3.org/2000/svg" xmlns:xlink="http://www.w3.org/1999/xlink">
<g id="graph0" class="graph" transform="scale(1 1) rotate(0) translate(4 280)">
<title>dependencies</title>
<polygon fill="#ffffff" stroke="transparent" points="-4,4 -4,-280 2627,-280 2627,4 -4,4"/>
<text text-anchor="start" x="1290.5091" y="-42.4" font-family="sans-serif" font-weight="bold" font-size="14.00" fill="#000000">Legend</text>
<polygon fill="#ffffb3" stroke="transparent" points="1077.5,-10 1077.5,-30 1097.5,-30 1097.5,-10 1077.5,-10"/>
<text text-anchor="start" x="1101.129" y="-15.4" font-family="sans-serif" font-size="14.00" fill="#000000"> &#160;Declarations</text>
<polygon fill="#8dd3c7" stroke="transparent" points="1190.5,-10 1190.5,-30 1210.5,-30 1210.5,-10 1190.5,-10"/>
<text text-anchor="start" x="1214.2251" y="-15.4" font-family="sans-serif" font-size="14.00" fill="#000000"> &#160;Module</text>
<polygon fill="#80b1d3" stroke="transparent" points="1276.5,-10 1276.5,-30 1296.5,-30 1296.5,-10 1276.5,-10"/>
<text text-anchor="start" x="1300.2812" y="-15.4" font-family="sans-serif" font-size="14.00" fill="#000000"> &#160;Bootstrap</text>
<polygon fill="#fdb462" stroke="transparent" points="1373.5,-10 1373.5,-30 1393.5,-30 1393.5,-10 1373.5,-10"/>
<text text-anchor="start" x="1397.1732" y="-15.4" font-family="sans-serif" font-size="14.00" fill="#000000"> &#160;Providers</text>
<polygon fill="#fb8072" stroke="transparent" points="1469.5,-10 1469.5,-30 1489.5,-30 1489.5,-10 1469.5,-10"/>
<text text-anchor="start" x="1493.2258" y="-15.4" font-family="sans-serif" font-size="14.00" fill="#000000"> &#160;Exports</text>
<g id="clust1" class="cluster">
<title>cluster_AppModule</title>
<polygon fill="none" stroke="#000000" stroke-dasharray="1,5" points="8,-70 8,-268 1921,-268 1921,-70 8,-70"/>
</g>
<g id="clust2" class="cluster">
<title>cluster_AppModule_declarations</title>
<polygon fill="none" stroke="#000000" points="462,-78 462,-130 1913,-130 1913,-78 462,-78"/>
</g>
<g id="clust12" class="cluster">
<title>cluster_AppModule_imports</title>
<polygon fill="none" stroke="#000000" points="310,-78 310,-130 454,-130 454,-78 310,-78"/>
</g>
<g id="clust14" class="cluster">
<title>cluster_AppModule_bootstrap</title>
<polygon fill="none" stroke="#000000" points="827,-208 827,-260 951,-260 951,-208 827,-208"/>
</g>
<g id="clust15" class="cluster">
<title>cluster_AppModule_providers</title>
<polygon fill="none" stroke="#000000" points="16,-78 16,-130 302,-130 302,-78 16,-78"/>
</g>
<g id="clust22" class="cluster">
<title>cluster_EditionModule</title>
<polygon fill="none" stroke="#000000" stroke-dasharray="1,5" points="1929,-70 1929,-195 2615,-195 2615,-70 1929,-70"/>
</g>
<g id="clust23" class="cluster">
<title>cluster_EditionModule_declarations</title>
<polygon fill="none" stroke="#000000" points="2107,-78 2107,-130 2607,-130 2607,-78 2107,-78"/>
</g>
<g id="clust28" class="cluster">
<title>cluster_EditionModule_imports</title>
<polygon fill="none" stroke="#000000" points="1937,-78 1937,-130 2099,-130 2099,-78 1937,-78"/>
</g>
<!-- AnConnexionComponent -->
<g id="node1" class="node">
<title>AnConnexionComponent</title>
<polygon fill="#ffffb3" stroke="#000000" points="1904.8808,-122 1745.1192,-122 1745.1192,-86 1904.8808,-86 1904.8808,-122"/>
<text text-anchor="middle" x="1825" y="-99.8" font-family="Times,serif" font-size="14.00" fill="#000000">AnConnexionComponent</text>
</g>
<!-- AppModule -->
<g id="node10" class="node">
<title>AppModule</title>
<polygon fill="#8dd3c7" stroke="#000000" points="930.6571,-187 927.6571,-191 906.6571,-191 903.6571,-187 847.3429,-187 847.3429,-151 930.6571,-151 930.6571,-187"/>
<text text-anchor="middle" x="889" y="-164.8" font-family="Times,serif" font-size="14.00" fill="#000000">AppModule</text>
</g>
<!-- AnConnexionComponent&#45;&gt;AppModule -->
<g id="edge1" class="edge">
<title>AnConnexionComponent&#45;&gt;AppModule</title>
<path fill="none" stroke="#000000" d="M1825,-122.0449C1825,-143.6623 1825,-177 1825,-177 1825,-177 940.7309,-177 940.7309,-177"/>
<polygon fill="#000000" stroke="#000000" points="940.7309,-173.5001 930.7309,-177 940.7309,-180.5001 940.7309,-173.5001"/>
</g>
<!-- AnewsAuteurComponent -->
<g id="node2" class="node">
<title>AnewsAuteurComponent</title>
<polygon fill="#ffffb3" stroke="#000000" points="1727.5772,-122 1568.4228,-122 1568.4228,-86 1727.5772,-86 1727.5772,-122"/>
<text text-anchor="middle" x="1648" y="-99.8" font-family="Times,serif" font-size="14.00" fill="#000000">AnewsAuteurComponent</text>
</g>
<!-- AnewsAuteurComponent&#45;&gt;AppModule -->
<g id="edge2" class="edge">
<title>AnewsAuteurComponent&#45;&gt;AppModule</title>
<path fill="none" stroke="#000000" d="M1648,-122.2228C1648,-142.3652 1648,-172 1648,-172 1648,-172 940.8883,-172 940.8883,-172"/>
<polygon fill="#000000" stroke="#000000" points="940.8883,-168.5001 930.8883,-172 940.8882,-175.5001 940.8883,-168.5001"/>
</g>
<!-- AnewsComponent -->
<g id="node3" class="node">
<title>AnewsComponent</title>
<polygon fill="#ffffb3" stroke="#000000" points="1550.205,-122 1429.795,-122 1429.795,-86 1550.205,-86 1550.205,-122"/>
<text text-anchor="middle" x="1490" y="-99.8" font-family="Times,serif" font-size="14.00" fill="#000000">AnewsComponent</text>
</g>
<!-- AnewsComponent&#45;&gt;AppModule -->
<g id="edge3" class="edge">
<title>AnewsComponent&#45;&gt;AppModule</title>
<path fill="none" stroke="#000000" d="M1490,-122.2222C1490,-140.8285 1490,-167 1490,-167 1490,-167 940.784,-167 940.784,-167"/>
<polygon fill="#000000" stroke="#000000" points="940.784,-163.5001 930.784,-167 940.784,-170.5001 940.784,-163.5001"/>
</g>
<!-- AnewsDetailComponent -->
<g id="node4" class="node">
<title>AnewsDetailComponent</title>
<polygon fill="#ffffb3" stroke="#000000" points="1412.413,-122 1257.587,-122 1257.587,-86 1412.413,-86 1412.413,-122"/>
<text text-anchor="middle" x="1335" y="-99.8" font-family="Times,serif" font-size="14.00" fill="#000000">AnewsDetailComponent</text>
</g>
<!-- AnewsDetailComponent&#45;&gt;AppModule -->
<g id="edge4" class="edge">
<title>AnewsDetailComponent&#45;&gt;AppModule</title>
<path fill="none" stroke="#000000" d="M1335,-122.0336C1335,-139.0597 1335,-162 1335,-162 1335,-162 940.9586,-162 940.9586,-162"/>
<polygon fill="#000000" stroke="#000000" points="940.9586,-158.5001 930.9586,-162 940.9586,-165.5001 940.9586,-158.5001"/>
</g>
<!-- AnewsRelativeComponent -->
<g id="node5" class="node">
<title>AnewsRelativeComponent</title>
<polygon fill="#ffffb3" stroke="#000000" points="1239.3571,-122 1072.6429,-122 1072.6429,-86 1239.3571,-86 1239.3571,-122"/>
<text text-anchor="middle" x="1156" y="-99.8" font-family="Times,serif" font-size="14.00" fill="#000000">AnewsRelativeComponent</text>
</g>
<!-- AnewsRelativeComponent&#45;&gt;AppModule -->
<g id="edge5" class="edge">
<title>AnewsRelativeComponent&#45;&gt;AppModule</title>
<path fill="none" stroke="#000000" d="M1156,-122.2396C1156,-137.5706 1156,-157 1156,-157 1156,-157 940.7188,-157 940.7188,-157"/>
<polygon fill="#000000" stroke="#000000" points="940.7188,-153.5001 930.7188,-157 940.7187,-160.5001 940.7188,-153.5001"/>
</g>
<!-- AnewsreserveesComponent -->
<g id="node6" class="node">
<title>AnewsreserveesComponent</title>
<polygon fill="#ffffb3" stroke="#000000" points="1054.2738,-122 881.7262,-122 881.7262,-86 1054.2738,-86 1054.2738,-122"/>
<text text-anchor="middle" x="968" y="-99.8" font-family="Times,serif" font-size="14.00" fill="#000000">AnewsreserveesComponent</text>
</g>
<!-- AnewsreserveesComponent&#45;&gt;AppModule -->
<g id="edge6" class="edge">
<title>AnewsreserveesComponent&#45;&gt;AppModule</title>
<path fill="none" stroke="#000000" d="M906.3457,-122.1061C906.3457,-122.1061 906.3457,-140.991 906.3457,-140.991"/>
<polygon fill="#000000" stroke="#000000" points="902.8458,-140.9909 906.3457,-150.991 909.8458,-140.991 902.8458,-140.9909"/>
</g>
<!-- AppComponent -->
<g id="node7" class="node">
<title>AppComponent</title>
<polygon fill="#ffffb3" stroke="#000000" points="863.9399,-122 758.0601,-122 758.0601,-86 863.9399,-86 863.9399,-122"/>
<text text-anchor="middle" x="811" y="-99.8" font-family="Times,serif" font-size="14.00" fill="#000000">AppComponent</text>
</g>
<!-- AppComponent&#45;&gt;AppModule -->
<g id="edge7" class="edge">
<title>AppComponent&#45;&gt;AppModule</title>
<path fill="none" stroke="#000000" d="M855.4457,-122.1061C855.4457,-122.1061 855.4457,-140.991 855.4457,-140.991"/>
<polygon fill="#000000" stroke="#000000" points="851.9457,-140.9909 855.4457,-150.991 858.9457,-140.991 851.9457,-140.9909"/>
</g>
<!-- Erreur404Component -->
<g id="node8" class="node">
<title>Erreur404Component</title>
<polygon fill="#ffffb3" stroke="#000000" points="740.0814,-122 601.9186,-122 601.9186,-86 740.0814,-86 740.0814,-122"/>
<text text-anchor="middle" x="671" y="-99.8" font-family="Times,serif" font-size="14.00" fill="#000000">Erreur404Component</text>
</g>
<!-- Erreur404Component&#45;&gt;AppModule -->
<g id="edge8" class="edge">
<title>Erreur404Component&#45;&gt;AppModule</title>
<path fill="none" stroke="#000000" d="M671,-122.2396C671,-137.5706 671,-157 671,-157 671,-157 837.2253,-157 837.2253,-157"/>
<polygon fill="#000000" stroke="#000000" points="837.2254,-160.5001 847.2253,-157 837.2253,-153.5001 837.2254,-160.5001"/>
</g>
<!-- MenuComponent -->
<g id="node9" class="node">
<title>MenuComponent</title>
<polygon fill="#ffffb3" stroke="#000000" points="583.9916,-122 470.0084,-122 470.0084,-86 583.9916,-86 583.9916,-122"/>
<text text-anchor="middle" x="527" y="-99.8" font-family="Times,serif" font-size="14.00" fill="#000000">MenuComponent</text>
</g>
<!-- MenuComponent&#45;&gt;AppModule -->
<g id="edge9" class="edge">
<title>MenuComponent&#45;&gt;AppModule</title>
<path fill="none" stroke="#000000" d="M527,-122.0225C527,-139.3734 527,-163 527,-163 527,-163 837.1204,-163 837.1204,-163"/>
<polygon fill="#000000" stroke="#000000" points="837.1204,-166.5001 847.1204,-163 837.1203,-159.5001 837.1204,-166.5001"/>
</g>
<!-- AppComponent  -->
<g id="node12" class="node">
<title>AppComponent </title>
<polygon fill="#80b1d3" stroke="#000000" points="943.439,-252 834.561,-252 834.561,-216 943.439,-216 943.439,-252"/>
<text text-anchor="middle" x="889" y="-229.8" font-family="Times,serif" font-size="14.00" fill="#000000">AppComponent </text>
</g>
<!-- AppModule&#45;&gt;AppComponent  -->
<g id="edge11" class="edge">
<title>AppModule&#45;&gt;AppComponent </title>
<path fill="none" stroke="#000000" stroke-dasharray="1,5" d="M889,-187.1061C889,-187.1061 889,-205.991 889,-205.991"/>
<polygon fill="#000000" stroke="#000000" points="885.5001,-205.9909 889,-215.991 892.5001,-205.991 885.5001,-205.9909"/>
</g>
<!-- AppRoutingModule -->
<g id="node11" class="node">
<title>AppRoutingModule</title>
<polygon fill="#8dd3c7" stroke="#000000" points="446.2744,-122 443.2744,-126 422.2744,-126 419.2744,-122 317.7256,-122 317.7256,-86 446.2744,-86 446.2744,-122"/>
<text text-anchor="middle" x="382" y="-99.8" font-family="Times,serif" font-size="14.00" fill="#000000">AppRoutingModule</text>
</g>
<!-- AppRoutingModule&#45;&gt;AppModule -->
<g id="edge10" class="edge">
<title>AppRoutingModule&#45;&gt;AppModule</title>
<path fill="none" stroke="#000000" d="M382,-122.1061C382,-141.3391 382,-169 382,-169 382,-169 837.0787,-169 837.0787,-169"/>
<polygon fill="#000000" stroke="#000000" points="837.0788,-172.5001 847.0787,-169 837.0787,-165.5001 837.0788,-172.5001"/>
</g>
<!-- AnewsService -->
<g id="node13" class="node">
<title>AnewsService</title>
<ellipse fill="#fdb462" stroke="#000000" cx="227" cy="-104" rx="66.6113" ry="18"/>
<text text-anchor="middle" x="227" y="-99.8" font-family="Times,serif" font-size="14.00" fill="#000000">AnewsService</text>
</g>
<!-- AnewsService&#45;&gt;AppModule -->
<g id="edge12" class="edge">
<title>AnewsService&#45;&gt;AppModule</title>
<path fill="none" stroke="#000000" d="M227,-122.2843C227,-143.3211 227,-175 227,-175 227,-175 837.3382,-175 837.3382,-175"/>
<polygon fill="#000000" stroke="#000000" points="837.3382,-178.5001 847.3382,-175 837.3381,-171.5001 837.3382,-178.5001"/>
</g>
<!-- AuthService -->
<g id="node14" class="node">
<title>AuthService</title>
<ellipse fill="#fdb462" stroke="#000000" cx="83" cy="-104" rx="59.1083" ry="18"/>
<text text-anchor="middle" x="83" y="-99.8" font-family="Times,serif" font-size="14.00" fill="#000000">AuthService</text>
</g>
<!-- AuthService&#45;&gt;AppModule -->
<g id="edge13" class="edge">
<title>AuthService&#45;&gt;AppModule</title>
<path fill="none" stroke="#000000" d="M83,-122.2479C83,-145.0179 83,-181 83,-181 83,-181 837.0824,-181 837.0824,-181"/>
<polygon fill="#000000" stroke="#000000" points="837.0824,-184.5001 847.0824,-181 837.0823,-177.5001 837.0824,-184.5001"/>
</g>
<!-- AnAuteursComponent -->
<g id="node15" class="node">
<title>AnAuteursComponent</title>
<polygon fill="#ffffb3" stroke="#000000" points="2599.2562,-122 2456.7438,-122 2456.7438,-86 2599.2562,-86 2599.2562,-122"/>
<text text-anchor="middle" x="2528" y="-99.8" font-family="Times,serif" font-size="14.00" fill="#000000">AnAuteursComponent</text>
</g>
<!-- EditionModule -->
<g id="node19" class="node">
<title>EditionModule</title>
<polygon fill="#8dd3c7" stroke="#000000" points="2293.2745,-187 2290.2745,-191 2269.2745,-191 2266.2745,-187 2192.7255,-187 2192.7255,-151 2293.2745,-151 2293.2745,-187"/>
<text text-anchor="middle" x="2243" y="-164.8" font-family="Times,serif" font-size="14.00" fill="#000000">EditionModule</text>
</g>
<!-- AnAuteursComponent&#45;&gt;EditionModule -->
<g id="edge14" class="edge">
<title>AnAuteursComponent&#45;&gt;EditionModule</title>
<path fill="none" stroke="#000000" d="M2528,-122.1061C2528,-141.3391 2528,-169 2528,-169 2528,-169 2303.2962,-169 2303.2962,-169"/>
<polygon fill="#000000" stroke="#000000" points="2303.2963,-165.5001 2293.2962,-169 2303.2962,-172.5001 2303.2963,-165.5001"/>
</g>
<!-- AnEditionComponent -->
<g id="node16" class="node">
<title>AnEditionComponent</title>
<polygon fill="#ffffb3" stroke="#000000" points="2438.6638,-122 2299.3362,-122 2299.3362,-86 2438.6638,-86 2438.6638,-122"/>
<text text-anchor="middle" x="2369" y="-99.8" font-family="Times,serif" font-size="14.00" fill="#000000">AnEditionComponent</text>
</g>
<!-- AnEditionComponent&#45;&gt;EditionModule -->
<g id="edge15" class="edge">
<title>AnEditionComponent&#45;&gt;EditionModule</title>
<path fill="none" stroke="#000000" d="M2299.2384,-104C2291.9632,-104 2287.1631,-104 2287.1631,-104 2287.1631,-104 2287.1631,-140.8939 2287.1631,-140.8939"/>
<polygon fill="#000000" stroke="#000000" points="2283.6631,-140.8938 2287.1631,-150.8939 2290.6631,-140.8939 2283.6631,-140.8938"/>
</g>
<!-- FiltrerPipe -->
<g id="node17" class="node">
<title>FiltrerPipe</title>
<polygon fill="#ffffb3" stroke="#000000" points="2280.8781,-122 2205.1219,-122 2205.1219,-86 2280.8781,-86 2280.8781,-122"/>
<text text-anchor="middle" x="2243" y="-99.8" font-family="Times,serif" font-size="14.00" fill="#000000">FiltrerPipe</text>
</g>
<!-- FiltrerPipe&#45;&gt;EditionModule -->
<g id="edge16" class="edge">
<title>FiltrerPipe&#45;&gt;EditionModule</title>
<path fill="none" stroke="#000000" d="M2243,-122.1061C2243,-122.1061 2243,-140.991 2243,-140.991"/>
<polygon fill="#000000" stroke="#000000" points="2239.5001,-140.9909 2243,-150.991 2246.5001,-140.991 2239.5001,-140.9909"/>
</g>
<!-- NewsPipe -->
<g id="node18" class="node">
<title>NewsPipe</title>
<polygon fill="#ffffb3" stroke="#000000" points="2187.2606,-122 2114.7394,-122 2114.7394,-86 2187.2606,-86 2187.2606,-122"/>
<text text-anchor="middle" x="2151" y="-99.8" font-family="Times,serif" font-size="14.00" fill="#000000">NewsPipe</text>
</g>
<!-- NewsPipe&#45;&gt;EditionModule -->
<g id="edge17" class="edge">
<title>NewsPipe&#45;&gt;EditionModule</title>
<path fill="none" stroke="#000000" d="M2187.742,-104C2194.1654,-104 2198.837,-104 2198.837,-104 2198.837,-104 2198.837,-140.8939 2198.837,-140.8939"/>
<polygon fill="#000000" stroke="#000000" points="2195.337,-140.8938 2198.837,-150.8939 2202.337,-140.8939 2195.337,-140.8938"/>
</g>
<!-- EditionRoutingModule -->
<g id="node20" class="node">
<title>EditionRoutingModule</title>
<polygon fill="#8dd3c7" stroke="#000000" points="2090.892,-122 2087.892,-126 2066.892,-126 2063.892,-122 1945.108,-122 1945.108,-86 2090.892,-86 2090.892,-122"/>
<text text-anchor="middle" x="2018" y="-99.8" font-family="Times,serif" font-size="14.00" fill="#000000">EditionRoutingModule</text>
</g>
<!-- EditionRoutingModule&#45;&gt;EditionModule -->
<g id="edge18" class="edge">
<title>EditionRoutingModule&#45;&gt;EditionModule</title>
<path fill="none" stroke="#000000" d="M2018,-122.0908C2018,-145.1328 2018,-182 2018,-182 2018,-182 2182.5056,-182 2182.5056,-182"/>
<polygon fill="#000000" stroke="#000000" points="2182.5056,-185.5001 2192.5056,-182 2182.5056,-178.5001 2182.5056,-185.5001"/>
</g>
</g>
</svg>
